<svg width="172" height="42" viewBox="0 0 172 42" fill="none" xmlns="http://www.w3.org/2000/svg">
<path d="M160.669 24.6605C160.752 24.0462 160.815 23.4319 160.815 22.7792C160.815 22.1265 160.752 21.5122 160.669 20.8979L165.074 17.7304C165.47 17.4425 165.575 16.9242 165.324 16.5019L161.149 9.85976C160.961 9.55261 160.606 9.37984 160.231 9.37984C160.105 9.37984 159.98 9.39903 159.876 9.43743L154.678 11.3571C153.592 10.5892 152.423 9.95574 151.15 9.47582L150.357 4.38866C150.294 3.92794 149.856 3.5824 149.334 3.5824H140.984C140.462 3.5824 140.023 3.92794 139.961 4.38866L139.167 9.47582C137.894 9.95574 136.725 10.6084 135.639 11.3571L130.441 9.43743C130.316 9.39903 130.191 9.37984 130.066 9.37984C129.711 9.37984 129.356 9.55261 129.168 9.85976L124.993 16.5019C124.722 16.9242 124.847 17.4425 125.244 17.7304L129.648 20.8979C129.565 21.5122 129.502 22.1457 129.502 22.7792C129.502 23.4127 129.565 24.0462 129.648 24.6605L125.244 27.828C124.847 28.1159 124.743 28.6342 124.993 29.0566L129.168 35.6987C129.356 36.0058 129.711 36.1786 130.087 36.1786C130.212 36.1786 130.337 36.1594 130.441 36.121L135.639 34.2013C136.725 34.9692 137.894 35.6027 139.167 36.0826L139.961 41.1698C140.023 41.6305 140.462 41.976 140.984 41.976H149.334C149.856 41.976 150.294 41.6305 150.357 41.1698L151.15 36.0826C152.423 35.6027 153.592 34.95 154.678 34.2013L159.876 36.121C160.001 36.1594 160.126 36.1786 160.251 36.1786C160.606 36.1786 160.961 36.0058 161.149 35.6987L165.324 29.0566C165.575 28.6342 165.47 28.1159 165.074 27.828L160.669 24.6605ZM156.536 21.3778C156.619 21.9729 156.64 22.3761 156.64 22.7792C156.64 23.1823 156.598 23.6047 156.536 24.1806L156.243 26.3498L158.101 27.6936L160.356 29.3061L158.895 31.6289L156.243 30.6499L154.072 29.8436L152.194 31.149C151.296 31.7633 150.44 32.224 149.584 32.5504L147.371 33.3759L147.037 35.5451L146.62 38.1367H143.697L143.301 35.5451L142.967 33.3759L140.754 32.5504C139.856 32.2048 139.021 31.7633 138.186 31.1874L136.287 29.8436L134.074 30.6691L131.423 31.6481L129.961 29.3253L132.216 27.7128L134.074 26.369L133.782 24.1998C133.719 23.6047 133.677 23.1631 133.677 22.7792C133.677 22.3953 133.719 21.9537 133.782 21.3778L134.074 19.2086L132.216 17.8648L129.961 16.2523L131.423 13.9295L134.074 14.9085L136.245 15.7148L138.124 14.4094C139.021 13.7951 139.877 13.3344 140.733 13.008L142.946 12.1826L143.28 10.0133L143.697 7.42176H146.599L146.996 10.0133L147.33 12.1826L149.542 13.008C150.44 13.3536 151.275 13.7951 152.11 14.371L154.01 15.7148L156.223 14.8893L158.874 13.9103L160.335 16.2331L158.101 17.8648L156.243 19.2086L156.536 21.3778ZM145.159 15.1005C140.545 15.1005 136.808 18.5367 136.808 22.7792C136.808 27.0217 140.545 30.4579 145.159 30.4579C149.772 30.4579 153.509 27.0217 153.509 22.7792C153.509 18.5367 149.772 15.1005 145.159 15.1005ZM145.159 26.6186C142.862 26.6186 140.984 24.8909 140.984 22.7792C140.984 20.6676 142.862 18.9398 145.159 18.9398C147.455 18.9398 149.334 20.6676 149.334 22.7792C149.334 24.8909 147.455 26.6186 145.159 26.6186Z" fill="black"/>
<path d="M10.2441 25.4785H12.1191C12.0215 26.377 11.7643 27.181 11.3477 27.8906C10.931 28.6003 10.3418 29.1634 9.58008 29.5801C8.81836 29.9902 7.86784 30.1953 6.72852 30.1953C5.89518 30.1953 5.13672 30.0391 4.45312 29.7266C3.77604 29.4141 3.19336 28.9714 2.70508 28.3984C2.2168 27.819 1.83919 27.1257 1.57227 26.3184C1.31185 25.5046 1.18164 24.5996 1.18164 23.6035V22.1875C1.18164 21.1914 1.31185 20.2897 1.57227 19.4824C1.83919 18.6686 2.22005 17.972 2.71484 17.3926C3.21615 16.8132 3.81836 16.3672 4.52148 16.0547C5.22461 15.7422 6.01562 15.5859 6.89453 15.5859C7.96875 15.5859 8.87695 15.7878 9.61914 16.1914C10.3613 16.5951 10.9375 17.1549 11.3477 17.8711C11.7643 18.5807 12.0215 19.4043 12.1191 20.3418H10.2441C10.153 19.6777 9.98372 19.1081 9.73633 18.6328C9.48893 18.151 9.13737 17.7799 8.68164 17.5195C8.22591 17.2591 7.63021 17.1289 6.89453 17.1289C6.26302 17.1289 5.70638 17.2493 5.22461 17.4902C4.74935 17.7311 4.34896 18.0729 4.02344 18.5156C3.70443 18.9583 3.46354 19.4889 3.30078 20.1074C3.13802 20.7259 3.05664 21.4128 3.05664 22.168V23.6035C3.05664 24.3001 3.12826 24.9544 3.27148 25.5664C3.42122 26.1784 3.64583 26.7155 3.94531 27.1777C4.24479 27.64 4.62565 28.0046 5.08789 28.2715C5.55013 28.5319 6.09701 28.6621 6.72852 28.6621C7.5293 28.6621 8.16732 28.5352 8.64258 28.2812C9.11784 28.0273 9.47591 27.6628 9.7168 27.1875C9.96419 26.7122 10.14 26.1426 10.2441 25.4785ZM13.9355 24.834V24.6094C13.9355 23.8477 14.0462 23.1413 14.2676 22.4902C14.4889 21.8327 14.8079 21.263 15.2246 20.7812C15.6413 20.293 16.1458 19.9154 16.7383 19.6484C17.3307 19.375 17.9948 19.2383 18.7305 19.2383C19.4727 19.2383 20.14 19.375 20.7324 19.6484C21.3314 19.9154 21.8392 20.293 22.2559 20.7812C22.679 21.263 23.0013 21.8327 23.2227 22.4902C23.444 23.1413 23.5547 23.8477 23.5547 24.6094V24.834C23.5547 25.5957 23.444 26.3021 23.2227 26.9531C23.0013 27.6042 22.679 28.1738 22.2559 28.6621C21.8392 29.1439 21.3346 29.5215 20.7422 29.7949C20.1562 30.0618 19.4922 30.1953 18.75 30.1953C18.0078 30.1953 17.3405 30.0618 16.748 29.7949C16.1556 29.5215 15.6478 29.1439 15.2246 28.6621C14.8079 28.1738 14.4889 27.6042 14.2676 26.9531C14.0462 26.3021 13.9355 25.5957 13.9355 24.834ZM15.7422 24.6094V24.834C15.7422 25.3613 15.804 25.8594 15.9277 26.3281C16.0514 26.7904 16.237 27.2005 16.4844 27.5586C16.7383 27.9167 17.054 28.1999 17.4316 28.4082C17.8092 28.61 18.2487 28.7109 18.75 28.7109C19.2448 28.7109 19.6777 28.61 20.0488 28.4082C20.4264 28.1999 20.7389 27.9167 20.9863 27.5586C21.2337 27.2005 21.4193 26.7904 21.543 26.3281C21.6732 25.8594 21.7383 25.3613 21.7383 24.834V24.6094C21.7383 24.0885 21.6732 23.597 21.543 23.1348C21.4193 22.666 21.2305 22.2526 20.9766 21.8945C20.7292 21.5299 20.4167 21.2435 20.0391 21.0352C19.668 20.8268 19.2318 20.7227 18.7305 20.7227C18.2357 20.7227 17.7995 20.8268 17.4219 21.0352C17.0508 21.2435 16.7383 21.5299 16.4844 21.8945C16.237 22.2526 16.0514 22.666 15.9277 23.1348C15.804 23.597 15.7422 24.0885 15.7422 24.6094ZM27.627 21.6895V30H25.8203V19.4336H27.5293L27.627 21.6895ZM27.1973 24.3164L26.4453 24.2871C26.4518 23.5645 26.5592 22.8971 26.7676 22.2852C26.9759 21.6667 27.2689 21.1296 27.6465 20.6738C28.0241 20.2181 28.4733 19.8665 28.9941 19.6191C29.5215 19.3652 30.1042 19.2383 30.7422 19.2383C31.263 19.2383 31.7318 19.3099 32.1484 19.4531C32.5651 19.5898 32.9199 19.8112 33.2129 20.1172C33.5124 20.4232 33.7402 20.8203 33.8965 21.3086C34.0527 21.7904 34.1309 22.3796 34.1309 23.0762V30H32.3145V23.0566C32.3145 22.5033 32.2331 22.0605 32.0703 21.7285C31.9076 21.39 31.6699 21.1458 31.3574 20.9961C31.0449 20.8398 30.6608 20.7617 30.2051 20.7617C29.7559 20.7617 29.3457 20.8561 28.9746 21.0449C28.61 21.2337 28.2943 21.4941 28.0273 21.8262C27.7669 22.1582 27.5618 22.5391 27.4121 22.9688C27.2689 23.3919 27.1973 23.8411 27.1973 24.3164ZM39.2871 30H37.4805V18.5156C37.4805 17.7148 37.6367 17.0378 37.9492 16.4844C38.2617 15.931 38.7077 15.5111 39.2871 15.2246C39.8665 14.9382 40.5534 14.7949 41.3477 14.7949C41.8164 14.7949 42.2754 14.8535 42.7246 14.9707C43.1738 15.0814 43.6361 15.2214 44.1113 15.3906L43.8086 16.9141C43.5091 16.7969 43.1608 16.6862 42.7637 16.582C42.373 16.4714 41.9434 16.416 41.4746 16.416C40.6999 16.416 40.14 16.5918 39.7949 16.9434C39.4564 17.2884 39.2871 17.8125 39.2871 18.5156V30ZM41.4453 19.4336V20.8203H35.8105V19.4336H41.4453ZM45 19.4336V30H43.1934V19.4336H45ZM54.8145 19.4336H56.4551V29.7754C56.4551 30.7064 56.2663 31.5007 55.8887 32.1582C55.5111 32.8158 54.9837 33.3138 54.3066 33.6523C53.6361 33.9974 52.8613 34.1699 51.9824 34.1699C51.6178 34.1699 51.1882 34.1113 50.6934 33.9941C50.2051 33.8835 49.7233 33.6914 49.248 33.418C48.7793 33.151 48.3854 32.7897 48.0664 32.334L49.0137 31.2598C49.4564 31.7936 49.9186 32.1647 50.4004 32.373C50.8887 32.5814 51.3704 32.6855 51.8457 32.6855C52.4186 32.6855 52.9134 32.5781 53.3301 32.3633C53.7467 32.1484 54.069 31.8294 54.2969 31.4062C54.5312 30.9896 54.6484 30.4753 54.6484 29.8633V21.7578L54.8145 19.4336ZM47.5391 24.834V24.6289C47.5391 23.8216 47.6335 23.0892 47.8223 22.4316C48.0176 21.7676 48.2943 21.1979 48.6523 20.7227C49.0169 20.2474 49.4564 19.8828 49.9707 19.6289C50.485 19.3685 51.0645 19.2383 51.709 19.2383C52.373 19.2383 52.9525 19.3555 53.4473 19.5898C53.9486 19.8177 54.3717 20.153 54.7168 20.5957C55.0684 21.0319 55.3451 21.5592 55.5469 22.1777C55.7487 22.7962 55.8887 23.4961 55.9668 24.2773V25.1758C55.8952 25.9505 55.7552 26.6471 55.5469 27.2656C55.3451 27.8841 55.0684 28.4115 54.7168 28.8477C54.3717 29.2839 53.9486 29.6191 53.4473 29.8535C52.946 30.0814 52.36 30.1953 51.6895 30.1953C51.0579 30.1953 50.485 30.0618 49.9707 29.7949C49.4629 29.528 49.0267 29.1536 48.6621 28.6719C48.2975 28.1901 48.0176 27.6237 47.8223 26.9727C47.6335 26.3151 47.5391 25.6022 47.5391 24.834ZM49.3457 24.6289V24.834C49.3457 25.3613 49.3978 25.8561 49.502 26.3184C49.6126 26.7806 49.7786 27.1875 50 27.5391C50.2279 27.8906 50.5176 28.1673 50.8691 28.3691C51.2207 28.5645 51.6406 28.6621 52.1289 28.6621C52.7279 28.6621 53.2227 28.5352 53.6133 28.2812C54.0039 28.0273 54.3132 27.6921 54.541 27.2754C54.7754 26.8587 54.9577 26.4062 55.0879 25.918V23.5645C55.0163 23.2064 54.9056 22.8613 54.7559 22.5293C54.6126 22.1908 54.4238 21.8913 54.1895 21.6309C53.9616 21.3639 53.6784 21.1523 53.3398 20.9961C53.0013 20.8398 52.6042 20.7617 52.1484 20.7617C51.6536 20.7617 51.2272 20.8659 50.8691 21.0742C50.5176 21.276 50.2279 21.556 50 21.9141C49.7786 22.2656 49.6126 22.6758 49.502 23.1445C49.3978 23.6068 49.3457 24.1016 49.3457 24.6289ZM65.6641 27.5586V19.4336H67.4805V30H65.752L65.6641 27.5586ZM66.0059 25.332L66.7578 25.3125C66.7578 26.0156 66.6829 26.6667 66.5332 27.2656C66.39 27.8581 66.1556 28.3724 65.8301 28.8086C65.5046 29.2448 65.0781 29.5866 64.5508 29.834C64.0234 30.0749 63.3822 30.1953 62.627 30.1953C62.1126 30.1953 61.6406 30.1204 61.2109 29.9707C60.7878 29.821 60.4232 29.5898 60.1172 29.2773C59.8112 28.9648 59.5736 28.5579 59.4043 28.0566C59.2415 27.5553 59.1602 26.9531 59.1602 26.25V19.4336H60.9668V26.2695C60.9668 26.7448 61.0189 27.1387 61.123 27.4512C61.2337 27.7572 61.3802 28.0013 61.5625 28.1836C61.7513 28.3594 61.9596 28.4831 62.1875 28.5547C62.4219 28.6263 62.6628 28.6621 62.9102 28.6621C63.6784 28.6621 64.2871 28.5156 64.7363 28.2227C65.1855 27.9232 65.5078 27.5228 65.7031 27.0215C65.9049 26.5137 66.0059 25.9505 66.0059 25.332ZM72.041 21.0938V30H70.2344V19.4336H71.9922L72.041 21.0938ZM75.3418 19.375L75.332 21.0547C75.1823 21.0221 75.0391 21.0026 74.9023 20.9961C74.7721 20.9831 74.6224 20.9766 74.4531 20.9766C74.0365 20.9766 73.6686 21.0417 73.3496 21.1719C73.0306 21.3021 72.7604 21.4844 72.5391 21.7188C72.3177 21.9531 72.1419 22.2331 72.0117 22.5586C71.888 22.8776 71.8066 23.2292 71.7676 23.6133L71.2598 23.9062C71.2598 23.2682 71.3216 22.6693 71.4453 22.1094C71.5755 21.5495 71.7741 21.0547 72.041 20.625C72.3079 20.1888 72.6465 19.8503 73.0566 19.6094C73.4733 19.362 73.9681 19.2383 74.541 19.2383C74.6712 19.2383 74.821 19.2546 74.9902 19.2871C75.1595 19.3132 75.2767 19.3424 75.3418 19.375ZM82.8516 28.1934V22.7539C82.8516 22.3372 82.7669 21.9759 82.5977 21.6699C82.4349 21.3574 82.1875 21.1165 81.8555 20.9473C81.5234 20.778 81.1133 20.6934 80.625 20.6934C80.1693 20.6934 79.7689 20.7715 79.4238 20.9277C79.0853 21.084 78.8184 21.2891 78.623 21.543C78.4342 21.7969 78.3398 22.0703 78.3398 22.3633H76.5332C76.5332 21.9857 76.6309 21.6113 76.8262 21.2402C77.0215 20.8691 77.3014 20.5339 77.666 20.2344C78.0371 19.9284 78.4798 19.6875 78.9941 19.5117C79.515 19.3294 80.0944 19.2383 80.7324 19.2383C81.5007 19.2383 82.1777 19.3685 82.7637 19.6289C83.3561 19.8893 83.8184 20.2832 84.1504 20.8105C84.4889 21.3314 84.6582 21.9857 84.6582 22.7734V27.6953C84.6582 28.0469 84.6875 28.4212 84.7461 28.8184C84.8112 29.2155 84.9056 29.5573 85.0293 29.8438V30H83.1445C83.0534 29.7917 82.9818 29.515 82.9297 29.1699C82.8776 28.8184 82.8516 28.4928 82.8516 28.1934ZM83.1641 23.5938L83.1836 24.8633H81.3574C80.8431 24.8633 80.3841 24.9056 79.9805 24.9902C79.5768 25.0684 79.2383 25.1888 78.9648 25.3516C78.6914 25.5143 78.4831 25.7194 78.3398 25.9668C78.1966 26.2077 78.125 26.4909 78.125 26.8164C78.125 27.1484 78.1999 27.4512 78.3496 27.7246C78.4993 27.998 78.724 28.2161 79.0234 28.3789C79.3294 28.5352 79.7038 28.6133 80.1465 28.6133C80.6999 28.6133 81.1882 28.4961 81.6113 28.2617C82.0345 28.0273 82.3698 27.7409 82.6172 27.4023C82.8711 27.0638 83.0078 26.735 83.0273 26.416L83.7988 27.2852C83.7533 27.5586 83.6296 27.8613 83.4277 28.1934C83.2259 28.5254 82.9557 28.8444 82.6172 29.1504C82.2852 29.4499 81.888 29.7005 81.4258 29.9023C80.9701 30.0977 80.4557 30.1953 79.8828 30.1953C79.1667 30.1953 78.5384 30.0553 77.998 29.7754C77.4642 29.4954 77.0475 29.1211 76.748 28.6523C76.4551 28.1771 76.3086 27.6465 76.3086 27.0605C76.3086 26.4941 76.4193 25.9961 76.6406 25.5664C76.862 25.1302 77.181 24.7689 77.5977 24.4824C78.0143 24.1895 78.5156 23.9681 79.1016 23.8184C79.6875 23.6686 80.3418 23.5938 81.0645 23.5938H83.1641ZM91.9238 19.4336V20.8203H86.2109V19.4336H91.9238ZM88.1445 16.8652H89.9512V27.3828C89.9512 27.7409 90.0065 28.0111 90.1172 28.1934C90.2279 28.3757 90.3711 28.4961 90.5469 28.5547C90.7227 28.6133 90.9115 28.6426 91.1133 28.6426C91.263 28.6426 91.4193 28.6296 91.582 28.6035C91.7513 28.571 91.8783 28.5449 91.9629 28.5254L91.9727 30C91.8294 30.0456 91.6406 30.0879 91.4062 30.127C91.1784 30.1725 90.9017 30.1953 90.5762 30.1953C90.1335 30.1953 89.7266 30.1074 89.3555 29.9316C88.9844 29.7559 88.6882 29.4629 88.4668 29.0527C88.252 28.6361 88.1445 28.0762 88.1445 27.373V16.8652ZM96.0059 19.4336V30H94.1895V19.4336H96.0059ZM94.0527 16.6309C94.0527 16.3379 94.1406 16.0905 94.3164 15.8887C94.4987 15.6868 94.7656 15.5859 95.1172 15.5859C95.4622 15.5859 95.7259 15.6868 95.9082 15.8887C96.097 16.0905 96.1914 16.3379 96.1914 16.6309C96.1914 16.9108 96.097 17.1517 95.9082 17.3535C95.7259 17.5488 95.4622 17.6465 95.1172 17.6465C94.7656 17.6465 94.4987 17.5488 94.3164 17.3535C94.1406 17.1517 94.0527 16.9108 94.0527 16.6309ZM98.4277 24.834V24.6094C98.4277 23.8477 98.5384 23.1413 98.7598 22.4902C98.9811 21.8327 99.3001 21.263 99.7168 20.7812C100.133 20.293 100.638 19.9154 101.23 19.6484C101.823 19.375 102.487 19.2383 103.223 19.2383C103.965 19.2383 104.632 19.375 105.225 19.6484C105.824 19.9154 106.331 20.293 106.748 20.7812C107.171 21.263 107.493 21.8327 107.715 22.4902C107.936 23.1413 108.047 23.8477 108.047 24.6094V24.834C108.047 25.5957 107.936 26.3021 107.715 26.9531C107.493 27.6042 107.171 28.1738 106.748 28.6621C106.331 29.1439 105.827 29.5215 105.234 29.7949C104.648 30.0618 103.984 30.1953 103.242 30.1953C102.5 30.1953 101.833 30.0618 101.24 29.7949C100.648 29.5215 100.14 29.1439 99.7168 28.6621C99.3001 28.1738 98.9811 27.6042 98.7598 26.9531C98.5384 26.3021 98.4277 25.5957 98.4277 24.834ZM100.234 24.6094V24.834C100.234 25.3613 100.296 25.8594 100.42 26.3281C100.544 26.7904 100.729 27.2005 100.977 27.5586C101.23 27.9167 101.546 28.1999 101.924 28.4082C102.301 28.61 102.741 28.7109 103.242 28.7109C103.737 28.7109 104.17 28.61 104.541 28.4082C104.919 28.1999 105.231 27.9167 105.479 27.5586C105.726 27.2005 105.911 26.7904 106.035 26.3281C106.165 25.8594 106.23 25.3613 106.23 24.834V24.6094C106.23 24.0885 106.165 23.597 106.035 23.1348C105.911 22.666 105.723 22.2526 105.469 21.8945C105.221 21.5299 104.909 21.2435 104.531 21.0352C104.16 20.8268 103.724 20.7227 103.223 20.7227C102.728 20.7227 102.292 20.8268 101.914 21.0352C101.543 21.2435 101.23 21.5299 100.977 21.8945C100.729 22.2526 100.544 22.666 100.42 23.1348C100.296 23.597 100.234 24.0885 100.234 24.6094ZM112.119 21.6895V30H110.312V19.4336H112.021L112.119 21.6895ZM111.689 24.3164L110.938 24.2871C110.944 23.5645 111.051 22.8971 111.26 22.2852C111.468 21.6667 111.761 21.1296 112.139 20.6738C112.516 20.2181 112.965 19.8665 113.486 19.6191C114.014 19.3652 114.596 19.2383 115.234 19.2383C115.755 19.2383 116.224 19.3099 116.641 19.4531C117.057 19.5898 117.412 19.8112 117.705 20.1172C118.005 20.4232 118.232 20.8203 118.389 21.3086C118.545 21.7904 118.623 22.3796 118.623 23.0762V30H116.807V23.0566C116.807 22.5033 116.725 22.0605 116.562 21.7285C116.4 21.39 116.162 21.1458 115.85 20.9961C115.537 20.8398 115.153 20.7617 114.697 20.7617C114.248 20.7617 113.838 20.8561 113.467 21.0449C113.102 21.2337 112.786 21.4941 112.52 21.8262C112.259 22.1582 112.054 22.5391 111.904 22.9688C111.761 23.3919 111.689 23.8411 111.689 24.3164Z" fill="black"/>
</svg>
