<svg width="95" height="16" viewBox="0 0 95 16" fill="none" xmlns="http://www.w3.org/2000/svg">
<path d="M4.62891 15H1.66016L1.67969 13.4668H4.62891C5.64453 13.4668 6.49089 13.2552 7.16797 12.832C7.84505 12.4023 8.35286 11.8034 8.69141 11.0352C9.03646 10.2604 9.20898 9.35547 9.20898 8.32031V7.45117C9.20898 6.63737 9.11133 5.91471 8.91602 5.2832C8.7207 4.64518 8.43424 4.10807 8.05664 3.67188C7.67904 3.22917 7.2168 2.89388 6.66992 2.66602C6.12956 2.43815 5.50781 2.32422 4.80469 2.32422H1.60156V0.78125H4.80469C5.73568 0.78125 6.58529 0.9375 7.35352 1.25C8.12174 1.55599 8.78255 2.00195 9.33594 2.58789C9.89583 3.16732 10.3255 3.87044 10.625 4.69727C10.9245 5.51758 11.0742 6.44206 11.0742 7.4707V8.32031C11.0742 9.34896 10.9245 10.2767 10.625 11.1035C10.3255 11.9238 9.89258 12.6237 9.32617 13.2031C8.76628 13.7826 8.08919 14.2285 7.29492 14.541C6.50716 14.847 5.61849 15 4.62891 15ZM2.66602 0.78125V15H0.78125V0.78125H2.66602ZM19.8633 13.1934V7.75391C19.8633 7.33724 19.7786 6.97591 19.6094 6.66992C19.4466 6.35742 19.1992 6.11654 18.8672 5.94727C18.5352 5.77799 18.125 5.69336 17.6367 5.69336C17.181 5.69336 16.7806 5.77148 16.4355 5.92773C16.097 6.08398 15.8301 6.28906 15.6348 6.54297C15.446 6.79688 15.3516 7.07031 15.3516 7.36328H13.5449C13.5449 6.98568 13.6426 6.61133 13.8379 6.24023C14.0332 5.86914 14.3132 5.53385 14.6777 5.23438C15.0488 4.92839 15.4915 4.6875 16.0059 4.51172C16.5267 4.32943 17.1061 4.23828 17.7441 4.23828C18.5124 4.23828 19.1895 4.36849 19.7754 4.62891C20.3678 4.88932 20.8301 5.2832 21.1621 5.81055C21.5007 6.33138 21.6699 6.98568 21.6699 7.77344V12.6953C21.6699 13.0469 21.6992 13.4212 21.7578 13.8184C21.8229 14.2155 21.9173 14.5573 22.041 14.8438V15H20.1562C20.0651 14.7917 19.9935 14.515 19.9414 14.1699C19.8893 13.8184 19.8633 13.4928 19.8633 13.1934ZM20.1758 8.59375L20.1953 9.86328H18.3691C17.8548 9.86328 17.3958 9.9056 16.9922 9.99023C16.5885 10.0684 16.25 10.1888 15.9766 10.3516C15.7031 10.5143 15.4948 10.7194 15.3516 10.9668C15.2083 11.2077 15.1367 11.4909 15.1367 11.8164C15.1367 12.1484 15.2116 12.4512 15.3613 12.7246C15.5111 12.998 15.7357 13.2161 16.0352 13.3789C16.3411 13.5352 16.7155 13.6133 17.1582 13.6133C17.7116 13.6133 18.1999 13.4961 18.623 13.2617C19.0462 13.0273 19.3815 12.7409 19.6289 12.4023C19.8828 12.0638 20.0195 11.735 20.0391 11.416L20.8105 12.2852C20.765 12.5586 20.6413 12.8613 20.4395 13.1934C20.2376 13.5254 19.9674 13.8444 19.6289 14.1504C19.2969 14.4499 18.8997 14.7005 18.4375 14.9023C17.9818 15.0977 17.4674 15.1953 16.8945 15.1953C16.1784 15.1953 15.5501 15.0553 15.0098 14.7754C14.4759 14.4954 14.0592 14.1211 13.7598 13.6523C13.4668 13.1771 13.3203 12.6465 13.3203 12.0605C13.3203 11.4941 13.431 10.9961 13.6523 10.5664C13.8737 10.1302 14.1927 9.76888 14.6094 9.48242C15.026 9.18945 15.5273 8.9681 16.1133 8.81836C16.6992 8.66862 17.3535 8.59375 18.0762 8.59375H20.1758ZM30.6641 12.1973C30.6641 11.9368 30.6055 11.696 30.4883 11.4746C30.3776 11.2467 30.1465 11.0417 29.7949 10.8594C29.4499 10.6706 28.929 10.5078 28.2324 10.3711C27.6465 10.2474 27.1159 10.1009 26.6406 9.93164C26.1719 9.76237 25.7715 9.55729 25.4395 9.31641C25.1139 9.07552 24.8633 8.79232 24.6875 8.4668C24.5117 8.14128 24.4238 7.76042 24.4238 7.32422C24.4238 6.90755 24.515 6.51367 24.6973 6.14258C24.8861 5.77148 25.1497 5.44271 25.4883 5.15625C25.8333 4.86979 26.2467 4.64518 26.7285 4.48242C27.2103 4.31966 27.7474 4.23828 28.3398 4.23828C29.1862 4.23828 29.9089 4.38802 30.5078 4.6875C31.1068 4.98698 31.5658 5.38737 31.8848 5.88867C32.2038 6.38346 32.3633 6.93359 32.3633 7.53906H30.5566C30.5566 7.24609 30.4688 6.96289 30.293 6.68945C30.1237 6.40951 29.873 6.17839 29.541 5.99609C29.2155 5.8138 28.8151 5.72266 28.3398 5.72266C27.8385 5.72266 27.4316 5.80078 27.1191 5.95703C26.8132 6.10677 26.5885 6.29883 26.4453 6.5332C26.3086 6.76758 26.2402 7.01497 26.2402 7.27539C26.2402 7.4707 26.2728 7.64648 26.3379 7.80273C26.4095 7.95247 26.5332 8.09245 26.709 8.22266C26.8848 8.34635 27.1322 8.46354 27.4512 8.57422C27.7702 8.6849 28.1771 8.79557 28.6719 8.90625C29.5378 9.10156 30.2507 9.33594 30.8105 9.60938C31.3704 9.88281 31.7871 10.2181 32.0605 10.6152C32.334 11.0124 32.4707 11.4941 32.4707 12.0605C32.4707 12.5228 32.373 12.946 32.1777 13.3301C31.9889 13.7142 31.7122 14.0462 31.3477 14.3262C30.9896 14.5996 30.5599 14.8145 30.0586 14.9707C29.5638 15.1204 29.0072 15.1953 28.3887 15.1953C27.4577 15.1953 26.6699 15.0293 26.0254 14.6973C25.3809 14.3652 24.8926 13.9355 24.5605 13.4082C24.2285 12.8809 24.0625 12.3242 24.0625 11.7383H25.8789C25.9049 12.2331 26.0482 12.627 26.3086 12.9199C26.569 13.2064 26.888 13.4115 27.2656 13.5352C27.6432 13.6523 28.0176 13.7109 28.3887 13.7109C28.8835 13.7109 29.2969 13.6458 29.6289 13.5156C29.9674 13.3854 30.2246 13.2064 30.4004 12.9785C30.5762 12.7507 30.6641 12.4902 30.6641 12.1973ZM36.6504 0V15H34.8438V0H36.6504ZM36.2207 9.31641L35.4688 9.28711C35.4753 8.56445 35.5827 7.89714 35.791 7.28516C35.9993 6.66667 36.2923 6.12956 36.6699 5.67383C37.0475 5.2181 37.4967 4.86654 38.0176 4.61914C38.5449 4.36523 39.1276 4.23828 39.7656 4.23828C40.2865 4.23828 40.7552 4.3099 41.1719 4.45312C41.5885 4.58984 41.9434 4.8112 42.2363 5.11719C42.5358 5.42318 42.7637 5.82031 42.9199 6.30859C43.0762 6.79036 43.1543 7.37956 43.1543 8.07617V15H41.3379V8.05664C41.3379 7.50326 41.2565 7.06055 41.0938 6.72852C40.931 6.38997 40.6934 6.14583 40.3809 5.99609C40.0684 5.83984 39.6842 5.76172 39.2285 5.76172C38.7793 5.76172 38.3691 5.85612 37.998 6.04492C37.6335 6.23372 37.3177 6.49414 37.0508 6.82617C36.7904 7.1582 36.5853 7.53906 36.4355 7.96875C36.2923 8.39193 36.2207 8.84115 36.2207 9.31641ZM45.8496 0H47.666V12.9492L47.5098 15H45.8496V0ZM54.8047 9.62891V9.83398C54.8047 10.6022 54.7135 11.3151 54.5312 11.9727C54.349 12.6237 54.082 13.1901 53.7305 13.6719C53.3789 14.1536 52.9492 14.528 52.4414 14.7949C51.9336 15.0618 51.3509 15.1953 50.6934 15.1953C50.0228 15.1953 49.4336 15.0814 48.9258 14.8535C48.4245 14.6191 48.0013 14.2839 47.6562 13.8477C47.3112 13.4115 47.0345 12.8841 46.8262 12.2656C46.6243 11.6471 46.4844 10.9505 46.4062 10.1758V9.27734C46.4844 8.49609 46.6243 7.79622 46.8262 7.17773C47.0345 6.55924 47.3112 6.0319 47.6562 5.5957C48.0013 5.15299 48.4245 4.81771 48.9258 4.58984C49.4271 4.35547 50.0098 4.23828 50.6738 4.23828C51.3379 4.23828 51.9271 4.36849 52.4414 4.62891C52.9557 4.88281 53.3854 5.2474 53.7305 5.72266C54.082 6.19792 54.349 6.76758 54.5312 7.43164C54.7135 8.08919 54.8047 8.82161 54.8047 9.62891ZM52.9883 9.83398V9.62891C52.9883 9.10156 52.9395 8.60677 52.8418 8.14453C52.7441 7.67578 52.5879 7.26562 52.373 6.91406C52.1582 6.55599 51.875 6.27604 51.5234 6.07422C51.1719 5.86589 50.7389 5.76172 50.2246 5.76172C49.7689 5.76172 49.3717 5.83984 49.0332 5.99609C48.7012 6.15234 48.418 6.36393 48.1836 6.63086C47.9492 6.89128 47.7572 7.19076 47.6074 7.5293C47.4642 7.86133 47.3568 8.20638 47.2852 8.56445V10.918C47.3893 11.3737 47.5586 11.8132 47.793 12.2363C48.0339 12.653 48.3529 12.9948 48.75 13.2617C49.1536 13.5286 49.6517 13.6621 50.2441 13.6621C50.7324 13.6621 51.1491 13.5645 51.4941 13.3691C51.8457 13.1673 52.1289 12.8906 52.3438 12.5391C52.5651 12.1875 52.7279 11.7806 52.832 11.3184C52.9362 10.8561 52.9883 10.3613 52.9883 9.83398ZM56.6113 9.83398V9.60938C56.6113 8.84766 56.722 8.14128 56.9434 7.49023C57.1647 6.83268 57.4837 6.26302 57.9004 5.78125C58.3171 5.29297 58.8216 4.91536 59.4141 4.64844C60.0065 4.375 60.6706 4.23828 61.4062 4.23828C62.1484 4.23828 62.8158 4.375 63.4082 4.64844C64.0072 4.91536 64.515 5.29297 64.9316 5.78125C65.3548 6.26302 65.6771 6.83268 65.8984 7.49023C66.1198 8.14128 66.2305 8.84766 66.2305 9.60938V9.83398C66.2305 10.5957 66.1198 11.3021 65.8984 11.9531C65.6771 12.6042 65.3548 13.1738 64.9316 13.6621C64.515 14.1439 64.0104 14.5215 63.418 14.7949C62.832 15.0618 62.168 15.1953 61.4258 15.1953C60.6836 15.1953 60.0163 15.0618 59.4238 14.7949C58.8314 14.5215 58.3236 14.1439 57.9004 13.6621C57.4837 13.1738 57.1647 12.6042 56.9434 11.9531C56.722 11.3021 56.6113 10.5957 56.6113 9.83398ZM58.418 9.60938V9.83398C58.418 10.3613 58.4798 10.8594 58.6035 11.3281C58.7272 11.7904 58.9128 12.2005 59.1602 12.5586C59.4141 12.9167 59.7298 13.1999 60.1074 13.4082C60.485 13.61 60.9245 13.7109 61.4258 13.7109C61.9206 13.7109 62.3535 13.61 62.7246 13.4082C63.1022 13.1999 63.4147 12.9167 63.6621 12.5586C63.9095 12.2005 64.0951 11.7904 64.2188 11.3281C64.349 10.8594 64.4141 10.3613 64.4141 9.83398V9.60938C64.4141 9.08854 64.349 8.59701 64.2188 8.13477C64.0951 7.66602 63.9062 7.2526 63.6523 6.89453C63.4049 6.52995 63.0924 6.24349 62.7148 6.03516C62.3438 5.82682 61.9076 5.72266 61.4062 5.72266C60.9115 5.72266 60.4753 5.82682 60.0977 6.03516C59.7266 6.24349 59.4141 6.52995 59.1602 6.89453C58.9128 7.2526 58.7272 7.66602 58.6035 8.13477C58.4798 8.59701 58.418 9.08854 58.418 9.60938ZM74.7266 13.1934V7.75391C74.7266 7.33724 74.6419 6.97591 74.4727 6.66992C74.3099 6.35742 74.0625 6.11654 73.7305 5.94727C73.3984 5.77799 72.9883 5.69336 72.5 5.69336C72.0443 5.69336 71.6439 5.77148 71.2988 5.92773C70.9603 6.08398 70.6934 6.28906 70.498 6.54297C70.3092 6.79688 70.2148 7.07031 70.2148 7.36328H68.4082C68.4082 6.98568 68.5059 6.61133 68.7012 6.24023C68.8965 5.86914 69.1764 5.53385 69.541 5.23438C69.9121 4.92839 70.3548 4.6875 70.8691 4.51172C71.39 4.32943 71.9694 4.23828 72.6074 4.23828C73.3757 4.23828 74.0527 4.36849 74.6387 4.62891C75.2311 4.88932 75.6934 5.2832 76.0254 5.81055C76.3639 6.33138 76.5332 6.98568 76.5332 7.77344V12.6953C76.5332 13.0469 76.5625 13.4212 76.6211 13.8184C76.6862 14.2155 76.7806 14.5573 76.9043 14.8438V15H75.0195C74.9284 14.7917 74.8568 14.515 74.8047 14.1699C74.7526 13.8184 74.7266 13.4928 74.7266 13.1934ZM75.0391 8.59375L75.0586 9.86328H73.2324C72.7181 9.86328 72.2591 9.9056 71.8555 9.99023C71.4518 10.0684 71.1133 10.1888 70.8398 10.3516C70.5664 10.5143 70.3581 10.7194 70.2148 10.9668C70.0716 11.2077 70 11.4909 70 11.8164C70 12.1484 70.0749 12.4512 70.2246 12.7246C70.3743 12.998 70.599 13.2161 70.8984 13.3789C71.2044 13.5352 71.5788 13.6133 72.0215 13.6133C72.5749 13.6133 73.0632 13.4961 73.4863 13.2617C73.9095 13.0273 74.2448 12.7409 74.4922 12.4023C74.7461 12.0638 74.8828 11.735 74.9023 11.416L75.6738 12.2852C75.6283 12.5586 75.5046 12.8613 75.3027 13.1934C75.1009 13.5254 74.8307 13.8444 74.4922 14.1504C74.1602 14.4499 73.763 14.7005 73.3008 14.9023C72.8451 15.0977 72.3307 15.1953 71.7578 15.1953C71.0417 15.1953 70.4134 15.0553 69.873 14.7754C69.3392 14.4954 68.9225 14.1211 68.623 13.6523C68.3301 13.1771 68.1836 12.6465 68.1836 12.0605C68.1836 11.4941 68.2943 10.9961 68.5156 10.5664C68.737 10.1302 69.056 9.76888 69.4727 9.48242C69.8893 9.18945 70.3906 8.9681 70.9766 8.81836C71.5625 8.66862 72.2168 8.59375 72.9395 8.59375H75.0391ZM81.1816 6.09375V15H79.375V4.43359H81.1328L81.1816 6.09375ZM84.4824 4.375L84.4727 6.05469C84.3229 6.02214 84.1797 6.0026 84.043 5.99609C83.9128 5.98307 83.763 5.97656 83.5938 5.97656C83.1771 5.97656 82.8092 6.04167 82.4902 6.17188C82.1712 6.30208 81.901 6.48438 81.6797 6.71875C81.4583 6.95312 81.2826 7.23307 81.1523 7.55859C81.0286 7.8776 80.9473 8.22917 80.9082 8.61328L80.4004 8.90625C80.4004 8.26823 80.4622 7.66927 80.5859 7.10938C80.7161 6.54948 80.9147 6.05469 81.1816 5.625C81.4486 5.1888 81.7871 4.85026 82.1973 4.60938C82.6139 4.36198 83.1087 4.23828 83.6816 4.23828C83.8118 4.23828 83.9616 4.25456 84.1309 4.28711C84.3001 4.31315 84.4173 4.34245 84.4824 4.375ZM92.6172 12.9492V0H94.4336V15H92.7734L92.6172 12.9492ZM85.5078 9.83398V9.62891C85.5078 8.82161 85.6055 8.08919 85.8008 7.43164C86.0026 6.76758 86.2858 6.19792 86.6504 5.72266C87.0215 5.2474 87.4609 4.88281 87.9688 4.62891C88.4831 4.36849 89.056 4.23828 89.6875 4.23828C90.3516 4.23828 90.931 4.35547 91.4258 4.58984C91.9271 4.81771 92.3503 5.15299 92.6953 5.5957C93.0469 6.0319 93.3236 6.55924 93.5254 7.17773C93.7272 7.79622 93.8672 8.49609 93.9453 9.27734V10.1758C93.8737 10.9505 93.7337 11.6471 93.5254 12.2656C93.3236 12.8841 93.0469 13.4115 92.6953 13.8477C92.3503 14.2839 91.9271 14.6191 91.4258 14.8535C90.9245 15.0814 90.3385 15.1953 89.668 15.1953C89.0495 15.1953 88.4831 15.0618 87.9688 14.7949C87.4609 14.528 87.0215 14.1536 86.6504 13.6719C86.2858 13.1901 86.0026 12.6237 85.8008 11.9727C85.6055 11.3151 85.5078 10.6022 85.5078 9.83398ZM87.3242 9.62891V9.83398C87.3242 10.3613 87.3763 10.8561 87.4805 11.3184C87.5911 11.7806 87.7604 12.1875 87.9883 12.5391C88.2161 12.8906 88.5059 13.1673 88.8574 13.3691C89.209 13.5645 89.6289 13.6621 90.1172 13.6621C90.7161 13.6621 91.2077 13.5352 91.5918 13.2812C91.9824 13.0273 92.2949 12.6921 92.5293 12.2754C92.7637 11.8587 92.946 11.4062 93.0762 10.918V8.56445C92.998 8.20638 92.8841 7.86133 92.7344 7.5293C92.5911 7.19076 92.4023 6.89128 92.168 6.63086C91.9401 6.36393 91.6569 6.15234 91.3184 5.99609C90.9863 5.83984 90.5924 5.76172 90.1367 5.76172C89.6419 5.76172 89.2155 5.86589 88.8574 6.07422C88.5059 6.27604 88.2161 6.55599 87.9883 6.91406C87.7604 7.26562 87.5911 7.67578 87.4805 8.14453C87.3763 8.60677 87.3242 9.10156 87.3242 9.62891Z" fill="black"/>
</svg>
