<svg width="110" height="42" viewBox="0 0 110 42" fill="none" xmlns="http://www.w3.org/2000/svg">
<path d="M89.375 30.7296L92 28.2796L87.125 23.7296H106.25V20.2296H87.125L92 15.6796L89.375 13.2296L80 21.9796L89.375 30.7296ZM72.5 9.72961H87.5V6.22961H72.5C70.4375 6.22961 68.75 7.80461 68.75 9.72961V34.2296C68.75 36.1546 70.4375 37.7296 72.5 37.7296H87.5V34.2296H72.5V9.72961Z" fill="black"/>
<path d="M11.5268 27.4668V29H4.41743V27.4668H11.5268ZM4.78853 14.7812V29H2.90376V14.7812H4.78853ZM12.9331 23.834V23.6094C12.9331 22.8477 13.0437 22.1413 13.2651 21.4902C13.4864 20.8327 13.8055 20.263 14.2221 19.7812C14.6388 19.293 15.1433 18.9154 15.7358 18.6484C16.3282 18.375 16.9923 18.2383 17.728 18.2383C18.4702 18.2383 19.1375 18.375 19.7299 18.6484C20.3289 18.9154 20.8367 19.293 21.2534 19.7812C21.6765 20.263 21.9988 20.8327 22.2202 21.4902C22.4415 22.1413 22.5522 22.8477 22.5522 23.6094V23.834C22.5522 24.5957 22.4415 25.3021 22.2202 25.9531C21.9988 26.6042 21.6765 27.1738 21.2534 27.6621C20.8367 28.1439 20.3321 28.5215 19.7397 28.7949C19.1538 29.0618 18.4897 29.1953 17.7475 29.1953C17.0053 29.1953 16.338 29.0618 15.7456 28.7949C15.1531 28.5215 14.6453 28.1439 14.2221 27.6621C13.8055 27.1738 13.4864 26.6042 13.2651 25.9531C13.0437 25.3021 12.9331 24.5957 12.9331 23.834ZM14.7397 23.6094V23.834C14.7397 24.3613 14.8015 24.8594 14.9252 25.3281C15.0489 25.7904 15.2345 26.2005 15.4819 26.5586C15.7358 26.9167 16.0515 27.1999 16.4292 27.4082C16.8068 27.61 17.2462 27.7109 17.7475 27.7109C18.2423 27.7109 18.6752 27.61 19.0463 27.4082C19.4239 27.1999 19.7364 26.9167 19.9838 26.5586C20.2312 26.2005 20.4168 25.7904 20.5405 25.3281C20.6707 24.8594 20.7358 24.3613 20.7358 23.834V23.6094C20.7358 23.0885 20.6707 22.597 20.5405 22.1348C20.4168 21.666 20.228 21.2526 19.9741 20.8945C19.7267 20.5299 19.4142 20.2435 19.0366 20.0352C18.6655 19.8268 18.2293 19.7227 17.728 19.7227C17.2332 19.7227 16.797 19.8268 16.4194 20.0352C16.0483 20.2435 15.7358 20.5299 15.4819 20.8945C15.2345 21.2526 15.0489 21.666 14.9252 22.1348C14.8015 22.597 14.7397 23.0885 14.7397 23.6094ZM31.6635 18.4336H33.3042V28.7754C33.3042 29.7064 33.1154 30.5007 32.7377 31.1582C32.3601 31.8158 31.8328 32.3138 31.1557 32.6523C30.4851 32.9974 29.7104 33.1699 28.8315 33.1699C28.4669 33.1699 28.0372 33.1113 27.5424 32.9941C27.0542 32.8835 26.5724 32.6914 26.0971 32.418C25.6284 32.151 25.2345 31.7897 24.9155 31.334L25.8627 30.2598C26.3055 30.7936 26.7677 31.1647 27.2495 31.373C27.7377 31.5814 28.2195 31.6855 28.6948 31.6855C29.2677 31.6855 29.7625 31.5781 30.1792 31.3633C30.5958 31.1484 30.9181 30.8294 31.146 30.4062C31.3803 29.9896 31.4975 29.4753 31.4975 28.8633V20.7578L31.6635 18.4336ZM24.3881 23.834V23.6289C24.3881 22.8216 24.4825 22.0892 24.6713 21.4316C24.8667 20.7676 25.1433 20.1979 25.5014 19.7227C25.866 19.2474 26.3055 18.8828 26.8198 18.6289C27.3341 18.3685 27.9135 18.2383 28.5581 18.2383C29.2221 18.2383 29.8015 18.3555 30.2963 18.5898C30.7976 18.8177 31.2208 19.153 31.5659 19.5957C31.9174 20.0319 32.1941 20.5592 32.396 21.1777C32.5978 21.7962 32.7377 22.4961 32.8159 23.2773V24.1758C32.7443 24.9505 32.6043 25.6471 32.396 26.2656C32.1941 26.8841 31.9174 27.4115 31.5659 27.8477C31.2208 28.2839 30.7976 28.6191 30.2963 28.8535C29.795 29.0814 29.2091 29.1953 28.5385 29.1953C27.907 29.1953 27.3341 29.0618 26.8198 28.7949C26.312 28.528 25.8758 28.1536 25.5112 27.6719C25.1466 27.1901 24.8667 26.6237 24.6713 25.9727C24.4825 25.3151 24.3881 24.6022 24.3881 23.834ZM26.1948 23.6289V23.834C26.1948 24.3613 26.2469 24.8561 26.351 25.3184C26.4617 25.7806 26.6277 26.1875 26.8491 26.5391C27.0769 26.8906 27.3667 27.1673 27.7182 27.3691C28.0698 27.5645 28.4897 27.6621 28.978 27.6621C29.5769 27.6621 30.0717 27.5352 30.4624 27.2812C30.853 27.0273 31.1622 26.6921 31.3901 26.2754C31.6245 25.8587 31.8068 25.4062 31.937 24.918V22.5645C31.8654 22.2064 31.7547 21.8613 31.6049 21.5293C31.4617 21.1908 31.2729 20.8913 31.0385 20.6309C30.8107 20.3639 30.5275 20.1523 30.1889 19.9961C29.8504 19.8398 29.4532 19.7617 28.9975 19.7617C28.5027 19.7617 28.0763 19.8659 27.7182 20.0742C27.3667 20.276 27.0769 20.556 26.8491 20.9141C26.6277 21.2656 26.4617 21.6758 26.351 22.1445C26.2469 22.6068 26.1948 23.1016 26.1948 23.6289ZM35.5698 23.834V23.6094C35.5698 22.8477 35.6805 22.1413 35.9018 21.4902C36.1232 20.8327 36.4422 20.263 36.8588 19.7812C37.2755 19.293 37.7801 18.9154 38.3725 18.6484C38.965 18.375 39.629 18.2383 40.3647 18.2383C41.1069 18.2383 41.7742 18.375 42.3667 18.6484C42.9656 18.9154 43.4734 19.293 43.8901 19.7812C44.3133 20.263 44.6355 20.8327 44.8569 21.4902C45.0782 22.1413 45.1889 22.8477 45.1889 23.6094V23.834C45.1889 24.5957 45.0782 25.3021 44.8569 25.9531C44.6355 26.6042 44.3133 27.1738 43.8901 27.6621C43.4734 28.1439 42.9689 28.5215 42.3764 28.7949C41.7905 29.0618 41.1264 29.1953 40.3842 29.1953C39.642 29.1953 38.9747 29.0618 38.3823 28.7949C37.7898 28.5215 37.282 28.1439 36.8588 27.6621C36.4422 27.1738 36.1232 26.6042 35.9018 25.9531C35.6805 25.3021 35.5698 24.5957 35.5698 23.834ZM37.3764 23.6094V23.834C37.3764 24.3613 37.4383 24.8594 37.562 25.3281C37.6857 25.7904 37.8712 26.2005 38.1186 26.5586C38.3725 26.9167 38.6883 27.1999 39.0659 27.4082C39.4435 27.61 39.8829 27.7109 40.3842 27.7109C40.879 27.7109 41.312 27.61 41.6831 27.4082C42.0607 27.1999 42.3732 26.9167 42.6206 26.5586C42.868 26.2005 43.0535 25.7904 43.1772 25.3281C43.3074 24.8594 43.3725 24.3613 43.3725 23.834V23.6094C43.3725 23.0885 43.3074 22.597 43.1772 22.1348C43.0535 21.666 42.8647 21.2526 42.6108 20.8945C42.3634 20.5299 42.0509 20.2435 41.6733 20.0352C41.3022 19.8268 40.866 19.7227 40.3647 19.7227C39.8699 19.7227 39.4337 19.8268 39.0561 20.0352C38.685 20.2435 38.3725 20.5299 38.1186 20.8945C37.8712 21.2526 37.6857 21.666 37.562 22.1348C37.4383 22.597 37.3764 23.0885 37.3764 23.6094ZM53.9194 26.5586V18.4336H55.7358V29H54.0073L53.9194 26.5586ZM54.2612 24.332L55.0131 24.3125C55.0131 25.0156 54.9383 25.6667 54.7885 26.2656C54.6453 26.8581 54.4109 27.3724 54.0854 27.8086C53.7599 28.2448 53.3335 28.5866 52.8061 28.834C52.2788 29.0749 51.6375 29.1953 50.8823 29.1953C50.368 29.1953 49.896 29.1204 49.4663 28.9707C49.0431 28.821 48.6785 28.5898 48.3725 28.2773C48.0665 27.9648 47.8289 27.5579 47.6596 27.0566C47.4969 26.5553 47.4155 25.9531 47.4155 25.25V18.4336H49.2221V25.2695C49.2221 25.7448 49.2742 26.1387 49.3784 26.4512C49.489 26.7572 49.6355 27.0013 49.8178 27.1836C50.0066 27.3594 50.215 27.4831 50.4428 27.5547C50.6772 27.6263 50.9181 27.6621 51.1655 27.6621C51.9337 27.6621 52.5424 27.5156 52.9917 27.2227C53.4409 26.9232 53.7631 26.5228 53.9585 26.0215C54.1603 25.5137 54.2612 24.9505 54.2612 24.332ZM62.9135 18.4336V19.8203H57.2006V18.4336H62.9135ZM59.1342 15.8652H60.9409V26.3828C60.9409 26.7409 60.9962 27.0111 61.1069 27.1934C61.2176 27.3757 61.3608 27.4961 61.5366 27.5547C61.7124 27.6133 61.9012 27.6426 62.103 27.6426C62.2527 27.6426 62.409 27.6296 62.5717 27.6035C62.741 27.571 62.868 27.5449 62.9526 27.5254L62.9624 29C62.8191 29.0456 62.6303 29.0879 62.396 29.127C62.1681 29.1725 61.8914 29.1953 61.5659 29.1953C61.1232 29.1953 60.7163 29.1074 60.3452 28.9316C59.9741 28.7559 59.6779 28.4629 59.4565 28.0527C59.2417 27.6361 59.1342 27.0762 59.1342 26.373V15.8652Z" fill="black"/>
</svg>
