<svg width="193" height="70" viewBox="0 0 193 70" fill="none" xmlns="http://www.w3.org/2000/svg">
<path d="M54.9609 20.6387L43.3594 56H34.0137L49.8633 13.3438H55.8105L54.9609 20.6387ZM64.5996 56L52.9688 20.6387L52.0312 13.3438H58.0371L73.9746 56H64.5996ZM64.0723 40.1211V47.0059H41.543V40.1211H64.0723Z" fill="black"/>
<path d="M20.4199 40.7949H9.55078V33.9395H20.4199C22.0996 33.9395 23.4668 33.666 24.5215 33.1191C25.5762 32.5527 26.3477 31.7715 26.8359 30.7754C27.3242 29.7793 27.5684 28.6562 27.5684 27.4062C27.5684 26.1367 27.3242 24.9551 26.8359 23.8613C26.3477 22.7676 25.5762 21.8887 24.5215 21.2246C23.4668 20.5605 22.0996 20.2285 20.4199 20.2285H12.5977V56H3.80859V13.3438H20.4199C23.7598 13.3438 26.6211 13.9492 29.0039 15.1602C31.4062 16.3516 33.2422 18.002 34.5117 20.1113C35.7812 22.2207 36.416 24.6328 36.416 27.3477C36.416 30.1016 35.7812 32.4844 34.5117 34.4961C33.2422 36.5078 31.4062 38.0605 29.0039 39.1543C26.6211 40.248 23.7598 40.7949 20.4199 40.7949Z" fill="black"/>
<path d="M189.531 33.6758V35.6973C189.531 38.9395 189.092 41.8496 188.213 44.4277C187.334 47.0059 186.094 49.2031 184.492 51.0195C182.891 52.8164 180.977 54.1934 178.75 55.1504C176.543 56.1074 174.092 56.5859 171.396 56.5859C168.721 56.5859 166.27 56.1074 164.043 55.1504C161.836 54.1934 159.922 52.8164 158.301 51.0195C156.68 49.2031 155.42 47.0059 154.521 44.4277C153.643 41.8496 153.203 38.9395 153.203 35.6973V33.6758C153.203 30.4141 153.643 27.5039 154.521 24.9453C155.4 22.3672 156.641 20.1699 158.242 18.3535C159.863 16.5371 161.777 15.1504 163.984 14.1934C166.211 13.2363 168.662 12.7578 171.338 12.7578C174.033 12.7578 176.484 13.2363 178.691 14.1934C180.918 15.1504 182.832 16.5371 184.434 18.3535C186.055 20.1699 187.305 22.3672 188.184 24.9453C189.082 27.5039 189.531 30.4141 189.531 33.6758ZM180.654 35.6973V33.6172C180.654 31.3516 180.449 29.3594 180.039 27.6406C179.629 25.9219 179.023 24.4766 178.223 23.3047C177.422 22.1328 176.445 21.2539 175.293 20.668C174.141 20.0625 172.822 19.7598 171.338 19.7598C169.854 19.7598 168.535 20.0625 167.383 20.668C166.25 21.2539 165.283 22.1328 164.482 23.3047C163.701 24.4766 163.105 25.9219 162.695 27.6406C162.285 29.3594 162.08 31.3516 162.08 33.6172V35.6973C162.08 37.9434 162.285 39.9355 162.695 41.6738C163.105 43.3926 163.711 44.8477 164.512 46.0391C165.312 47.2109 166.289 48.0996 167.441 48.7051C168.594 49.3105 169.912 49.6133 171.396 49.6133C172.881 49.6133 174.199 49.3105 175.352 48.7051C176.504 48.0996 177.471 47.2109 178.252 46.0391C179.033 44.8477 179.629 43.3926 180.039 41.6738C180.449 39.9355 180.654 37.9434 180.654 35.6973Z" fill="black"/>
<path d="M149.658 49.1445V56H119.424V49.1445H149.658ZM149.219 18.2363L123.32 56H117.139V50.9609L143.242 13.3438H149.219V18.2363ZM146.201 13.3438V20.2285H117.168V13.3438H146.201Z" fill="black"/>
<path d="M82 56L102 14H112L92 56H82Z" fill="black"/>
<path d="M87 14H77L91 37H101L87 14Z" fill="#02BAF2"/>
</svg>
