<svg width="46" height="45" viewBox="0 0 46 45" fill="none" xmlns="http://www.w3.org/2000/svg">
<path d="M22.6279 11.2498C24.7022 11.2498 26.3992 12.9373 26.3992 14.9998C26.3992 17.0623 24.7022 18.7498 22.6279 18.7498C20.5537 18.7498 18.8566 17.0623 18.8566 14.9998C18.8566 12.9373 20.5537 11.2498 22.6279 11.2498ZM22.6279 29.9998C27.7192 29.9998 33.5648 32.4185 33.9419 33.7498H11.314C11.7477 32.3998 17.5555 29.9998 22.6279 29.9998ZM22.6279 7.49976C18.4606 7.49976 15.0853 10.856 15.0853 14.9998C15.0853 19.1435 18.4606 22.4998 22.6279 22.4998C26.7952 22.4998 30.1706 19.1435 30.1706 14.9998C30.1706 10.856 26.7952 7.49976 22.6279 7.49976ZM22.6279 26.2498C17.5932 26.2498 7.54263 28.7623 7.54263 33.7498V37.4998H37.7132V33.7498C37.7132 28.7623 27.6626 26.2498 22.6279 26.2498Z" fill="#8802F2"/>
</svg>
