<svg width="103" height="45" viewBox="0 0 103 45" fill="none" xmlns="http://www.w3.org/2000/svg">
<path d="M97.1953 13.65V9.375C97.1953 7.3125 95.4727 5.625 93.3672 5.625H66.5703C64.4457 5.625 62.7422 7.3125 62.7422 9.375V35.625C62.7422 37.6875 64.4457 39.375 66.5703 39.375H93.3672C95.4727 39.375 97.1953 37.6875 97.1953 35.625V31.35C98.3246 30.6937 99.1094 29.5125 99.1094 28.125V16.875C99.1094 15.4875 98.3246 14.3063 97.1953 13.65ZM95.2812 16.875V28.125H81.8828V16.875H95.2812ZM66.5703 35.625V9.375H93.3672V13.125H81.8828C79.7773 13.125 78.0547 14.8125 78.0547 16.875V28.125C78.0547 30.1875 79.7773 31.875 81.8828 31.875H93.3672V35.625H66.5703Z" fill="black"/>
<path d="M87.625 25.3125C89.2107 25.3125 90.4961 24.0533 90.4961 22.5C90.4961 20.9467 89.2107 19.6875 87.625 19.6875C86.0393 19.6875 84.7539 20.9467 84.7539 22.5C84.7539 24.0533 86.0393 25.3125 87.625 25.3125Z" fill="black"/>
<path d="M5.80273 24.7031L8.625 14.7812H9.99219L9.20117 18.6387L6.16406 29H4.80664L5.80273 24.7031ZM2.88281 14.7812L5.12891 24.5078L5.80273 29H4.45508L1.00781 14.7812H2.88281ZM13.6445 24.498L15.8418 14.7812H17.7266L14.2891 29H12.9414L13.6445 24.498ZM10.1973 14.7812L12.9414 24.7031L13.9375 29H12.5801L9.65039 18.6387L8.84961 14.7812H10.1973ZM25.4414 27.1934V21.7539C25.4414 21.3372 25.3568 20.9759 25.1875 20.6699C25.0247 20.3574 24.7773 20.1165 24.4453 19.9473C24.1133 19.778 23.7031 19.6934 23.2148 19.6934C22.7591 19.6934 22.3587 19.7715 22.0137 19.9277C21.6751 20.084 21.4082 20.2891 21.2129 20.543C21.0241 20.7969 20.9297 21.0703 20.9297 21.3633H19.123C19.123 20.9857 19.2207 20.6113 19.416 20.2402C19.6113 19.8691 19.8913 19.5339 20.2559 19.2344C20.627 18.9284 21.0697 18.6875 21.584 18.5117C22.1048 18.3294 22.6842 18.2383 23.3223 18.2383C24.0905 18.2383 24.7676 18.3685 25.3535 18.6289C25.946 18.8893 26.4082 19.2832 26.7402 19.8105C27.0788 20.3314 27.248 20.9857 27.248 21.7734V26.6953C27.248 27.0469 27.2773 27.4212 27.3359 27.8184C27.401 28.2155 27.4954 28.5573 27.6191 28.8438V29H25.7344C25.6432 28.7917 25.5716 28.515 25.5195 28.1699C25.4674 27.8184 25.4414 27.4928 25.4414 27.1934ZM25.7539 22.5938L25.7734 23.8633H23.9473C23.4329 23.8633 22.974 23.9056 22.5703 23.9902C22.1667 24.0684 21.8281 24.1888 21.5547 24.3516C21.2812 24.5143 21.0729 24.7194 20.9297 24.9668C20.7865 25.2077 20.7148 25.4909 20.7148 25.8164C20.7148 26.1484 20.7897 26.4512 20.9395 26.7246C21.0892 26.998 21.3138 27.2161 21.6133 27.3789C21.9193 27.5352 22.2936 27.6133 22.7363 27.6133C23.2897 27.6133 23.778 27.4961 24.2012 27.2617C24.6243 27.0273 24.9596 26.7409 25.207 26.4023C25.4609 26.0638 25.5977 25.735 25.6172 25.416L26.3887 26.2852C26.3431 26.5586 26.2194 26.8613 26.0176 27.1934C25.8158 27.5254 25.5456 27.8444 25.207 28.1504C24.875 28.4499 24.4779 28.7005 24.0156 28.9023C23.5599 29.0977 23.0456 29.1953 22.4727 29.1953C21.7565 29.1953 21.1283 29.0553 20.5879 28.7754C20.054 28.4954 19.6374 28.1211 19.3379 27.6523C19.0449 27.1771 18.8984 26.6465 18.8984 26.0605C18.8984 25.4941 19.0091 24.9961 19.2305 24.5664C19.4518 24.1302 19.7708 23.7689 20.1875 23.4824C20.6042 23.1895 21.1055 22.9681 21.6914 22.8184C22.2773 22.6686 22.9316 22.5938 23.6543 22.5938H25.7539ZM32.0527 14V29H30.2363V14H32.0527ZM36.916 14V29H35.0996V14H36.916ZM44.2012 29.1953C43.4655 29.1953 42.7982 29.0716 42.1992 28.8242C41.6068 28.5703 41.0957 28.2155 40.666 27.7598C40.2428 27.304 39.9173 26.7637 39.6895 26.1387C39.4616 25.5137 39.3477 24.8301 39.3477 24.0879V23.6777C39.3477 22.8184 39.4746 22.0534 39.7285 21.3828C39.9824 20.7057 40.3275 20.1328 40.7637 19.6641C41.1999 19.1953 41.6947 18.8405 42.248 18.5996C42.8014 18.3587 43.3743 18.2383 43.9668 18.2383C44.722 18.2383 45.373 18.3685 45.9199 18.6289C46.4733 18.8893 46.9258 19.2539 47.2773 19.7227C47.6289 20.1849 47.8893 20.7318 48.0586 21.3633C48.2279 21.9883 48.3125 22.6719 48.3125 23.4141V24.2246H40.4219V22.75H46.5059V22.6133C46.4798 22.1445 46.3822 21.6888 46.2129 21.2461C46.0501 20.8034 45.7897 20.4388 45.4316 20.1523C45.0736 19.8659 44.5853 19.7227 43.9668 19.7227C43.5566 19.7227 43.179 19.8105 42.834 19.9863C42.4889 20.1556 42.1927 20.4095 41.9453 20.748C41.6979 21.0866 41.5059 21.5 41.3691 21.9883C41.2324 22.4766 41.1641 23.0397 41.1641 23.6777V24.0879C41.1641 24.5892 41.2324 25.0612 41.3691 25.5039C41.5124 25.9401 41.7174 26.3242 41.9844 26.6562C42.2578 26.9883 42.5866 27.2487 42.9707 27.4375C43.3613 27.6263 43.804 27.7207 44.2988 27.7207C44.9368 27.7207 45.4772 27.5905 45.9199 27.3301C46.3626 27.0697 46.75 26.7214 47.082 26.2852L48.1758 27.1543C47.9479 27.4993 47.6582 27.8281 47.3066 28.1406C46.9551 28.4531 46.5221 28.707 46.0078 28.9023C45.5 29.0977 44.8978 29.1953 44.2012 29.1953ZM54.8457 18.4336V19.8203H49.1328V18.4336H54.8457ZM51.0664 15.8652H52.873V26.3828C52.873 26.7409 52.9284 27.0111 53.0391 27.1934C53.1497 27.3757 53.293 27.4961 53.4688 27.5547C53.6445 27.6133 53.8333 27.6426 54.0352 27.6426C54.1849 27.6426 54.3411 27.6296 54.5039 27.6035C54.6732 27.571 54.8001 27.5449 54.8848 27.5254L54.8945 29C54.7513 29.0456 54.5625 29.0879 54.3281 29.127C54.1003 29.1725 53.8236 29.1953 53.498 29.1953C53.0553 29.1953 52.6484 29.1074 52.2773 28.9316C51.9062 28.7559 51.61 28.4629 51.3887 28.0527C51.1738 27.6361 51.0664 27.0762 51.0664 26.373V15.8652Z" fill="black"/>
</svg>
